<svg width="32" height="27" viewBox="0 0 32 27" fill="none" xmlns="http://www.w3.org/2000/svg">
<path d="M0.0704298 26.105V17.46C0.0704298 14.23 0.64043 11.2533 1.78043 8.53C2.92043 5.80666 4.8521 3.05166 7.57543 0.264994L12.5154 4.16C10.9321 5.74333 9.72876 7.23167 8.90543 8.625C8.0821 10.0183 7.54376 11.4433 7.29043 12.9H13.3704V26.105H0.0704298ZM18.5954 26.105V17.46C18.5954 14.23 19.1654 11.2533 20.3054 8.53C21.4454 5.80666 23.3771 3.05166 26.1004 0.264994L31.0404 4.16C29.4571 5.74333 28.2538 7.23167 27.4304 8.625C26.6071 10.0183 26.0688 11.4433 25.8154 12.9H31.8954V26.105H18.5954Z" fill="#83BC44"/>
</svg>
