<svg height="120" viewBox="0 0 120 120" width="120" xmlns="http://www.w3.org/2000/svg"><path d="M60 1.875c10.469 0 20.156 2.617 29.062 7.852 8.907 5.234 15.977 12.304 21.211 21.21 5.235 8.907 7.852 18.594 7.852 29.063 0 10.469-2.617 20.156-7.852 29.063-5.234 8.906-12.304 15.976-21.21 21.21-8.907 5.235-18.594 7.852-29.063 7.852s-20.156-2.617-29.063-7.852-15.976-12.304-21.21-21.21C4.492 80.156 1.875 70.469 1.875 60c0-10.469 2.617-20.156 7.852-29.062C14.96 22.03 22.03 14.96 30.937 9.727 39.844 4.492 49.531 1.875 60 1.875zm0 108.75c9.219 0 17.695-2.266 25.43-6.797 7.734-4.531 13.867-10.703 18.398-18.515s6.797-16.29 6.797-25.43-2.266-17.578-6.797-25.313c-4.531-7.734-10.703-13.867-18.516-18.398-7.812-4.531-16.289-6.797-25.43-6.797s-17.577 2.266-25.312 6.797c-7.734 4.531-13.867 10.703-18.398 18.516-4.531 7.812-6.797 16.289-6.797 25.43 0 9.14 2.266 17.577 6.797 25.312 4.531 7.734 10.703 13.867 18.515 18.398s16.25 6.797 25.313 6.797zm-9.14-22.5c-.47.625-1.094.938-1.876.938s-1.484-.313-2.11-.938L26.72 67.735c-.47-.47-.703-1.094-.703-1.876s.234-1.484.703-2.109l2.11-1.875c.468-.469 1.093-.703 1.874-.703s1.484.234 2.11.703l16.171 16.406 38.203-38.203c.625-.468 1.328-.703 2.11-.703s1.406.313 1.875.938l2.109 1.875c.469.625.703 1.328.703 2.109s-.234 1.406-.703 1.875z" fill="#83bc44" fill-rule="evenodd" stroke="#fff" stroke-width="2"/></svg>