<svg version="1.1" xmlns="http://www.w3.org/2000/svg" xmlns:xlink="http://www.w3.org/1999/xlink" x="0px" y="0px" width="20px" height="20px" viewBox="0 0 20 20" style="enable-background:new 0 0 20 20;" xml:space="preserve">
	<g>
		<path style="fill:#D6BEF4;" d="M16,14H8c-1.1,0-2-0.9-2-2V4c0-1.1,0.9-2,2-2h8c1.1,0,2,0.9,2,2v8C18,13.1,17.1,14,16,14z"/>
		<path style="fill:#7826DC;" d="M13,6.5c0.3,0,0.5,0.2,0.5,0.5v9c0,0.3-0.2,0.5-0.5,0.5H4c-0.3,0-0.5-0.2-0.5-0.5V7c0-0.3,0.2-0.5,0.5-0.5H13
			M13,5H4C2.9,5,2,5.9,2,7v9c0,1.1,0.9,2,2,2h9c1.1,0,2-0.9,2-2V7C15,5.9,14.1,5,13,5L13,5z"/>
	</g>
</svg>
