<svg version="1.1" xmlns="http://www.w3.org/2000/svg" xmlns:xlink="http://www.w3.org/1999/xlink" x="0px" y="0px" width="20px" height="20px" viewBox="0 0 20 20" style="enable-background:new 0 0 20 20;" xml:space="preserve">
	<g>
		<path style="fill:#C3BDDC;" d="M18,0h-7C9.9,0,9,0.9,9,2v7.7l1.3,1.3H18c1.1,0,2-0.9,2-2V2C20,0.9,19.1,0,18,0z"/>
		<path style="fill:#D6BEF4;" d="M10,10L5.7,9.8L6,5C4.9,5,4,5.9,4,7v7c0,1.1,0.9,2,2,2h7c1.1,0,2-0.9,2-2l-4.7,0.5L10,10z"/>
		<path style="fill:#37238C;" d="M14,4H7C5.9,4,5,4.9,5,6v3.5h1.2V6c0-0.4,0.4-0.8,0.8-0.8h7c0.4,0,0.8,0.4,0.8,0.8v7c0,0.4-0.4,0.8-0.8,0.8
			h-3.5V15H14c1.1,0,2-0.9,2-2V6C16,4.9,15.1,4,14,4z"/>
		<path style="fill:#7826DC;" d="M9,10.5c0.3,0,0.5,0.2,0.5,0.5v7c0,0.3-0.2,0.5-0.5,0.5H2c-0.3,0-0.5-0.2-0.5-0.5v-7c0-0.3,0.2-0.5,0.5-0.5H9
			M9,9H2c-1.1,0-2,0.9-2,2v7c0,1.1,0.9,2,2,2h7c1.1,0,2-0.9,2-2v-7C11,9.9,10.1,9,9,9L9,9z"/>
	</g>
</svg>
